# xmcd CD database file
#
# Track frame offsets:
#	150
#	13805
#	27881
#	40733
#	56065
#	66913
#	79361
#	95459
#	108599
#	120109
#	133791
#	148790
#	161973
#	176519
#	190274
#	203347
#	216087
#
# Disc length: 3080 seconds
#
# Revision: 0
# Processed by: cddbd v1.5.2PL0 Copyright (c) Steve Scherf et al.
# Submitted via: CDex 1.50Beta7
#
DISCID=f10c0611
DTITLE=marlia mendonça - ao vivo
DYEAR=2016
DGENRE=Country
TTITLE0=Impasse
TTITLE1=O Que É Amor pra Você
TTITLE2=Hoje Somos Só Metade
TTITLE3=Infiel
TTITLE4=Meu Cupido É Gari
TTITLE5=Folgado
TTITLE6=Esse Cara Aqui do Lado
TTITLE7=Silêncio
TTITLE8=Como Faz Com Ela
TTITLE9=QUATRO E QUINZE
TTITLE10=O Que Falta em Você Sou Eu
TTITLE11=Sentimento Louco
TTITLE12=Entre Quatro Paredes
TTITLE13=Essas Nossas Brigas
TTITLE14=A Voz do Coração
TTITLE15=Me Desculpe, Mas Eu Sou Fiel
TTITLE16=Alô Porteiro
EXTD=YEAR: 2016
EXTT0=
EXTT1=
EXTT2=
EXTT3=
EXTT4=
EXTT5=
EXTT6=
EXTT7=
EXTT8=
EXTT9=
EXTT10=
EXTT11=
EXTT12=
EXTT13=
EXTT14=
EXTT15=
EXTT16=
PLAYORDER=
